<?xml version="1.0" encoding="UTF-8" standalone="no"?>
<!-- Created with Inkscape (http://www.inkscape.org/) -->

<svg
   xmlns:dc="http://purl.org/dc/elements/1.1/"
   xmlns:cc="http://creativecommons.org/ns#"
   xmlns:rdf="http://www.w3.org/1999/02/22-rdf-syntax-ns#"
   xmlns:svg="http://www.w3.org/2000/svg"
   xmlns="http://www.w3.org/2000/svg"
   xmlns:sodipodi="http://sodipodi.sourceforge.net/DTD/sodipodi-0.dtd"
   xmlns:inkscape="http://www.inkscape.org/namespaces/inkscape"
   width="67.392151mm"
   height="30.567532mm"
   viewBox="0 0 67.392151 30.567532"
   version="1.1"
   id="svg8"
   inkscape:version="0.92.4 (unknown)"
   sodipodi:docname="genus-four-heegaard-splitting-of-s3.svg">
  <defs
     id="defs2" />
  <sodipodi:namedview
     id="base"
     pagecolor="#ffffff"
     bordercolor="#666666"
     borderopacity="1.0"
     inkscape:pageopacity="0.0"
     inkscape:pageshadow="2"
     inkscape:zoom="0.99437388"
     inkscape:cx="284.27627"
     inkscape:cy="182.72055"
     inkscape:document-units="mm"
     inkscape:current-layer="layer1"
     showgrid="false"
     showborder="true"
     width="200mm"
     showguides="true"
     inkscape:guide-bbox="true"
     inkscape:window-width="2520"
     inkscape:window-height="995"
     inkscape:window-x="20"
     inkscape:window-y="65"
     inkscape:window-maximized="1"
     inkscape:object-paths="true"
     inkscape:snap-smooth-nodes="true"
     inkscape:snap-global="true">
    <inkscape:grid
       type="xygrid"
       id="grid815"
       units="mm"
       spacingx="10"
       spacingy="10"
       empspacing="4"
       dotted="false"
       originx="-29.203459"
       originy="-82.261789" />
    <sodipodi:guide
       position="38.711258,-60.766159"
       orientation="1,0"
       id="guide881"
       inkscape:locked="false" />
    <sodipodi:guide
       position="31.944229,-55.779899"
       orientation="0,1"
       id="guide883"
       inkscape:locked="false" />
  </sodipodi:namedview>
  <metadata
     id="metadata5">
    <rdf:RDF>
      <cc:Work
         rdf:about="">
        <dc:format>image/svg+xml</dc:format>
        <dc:type
           rdf:resource="http://purl.org/dc/dcmitype/StillImage" />
        <dc:title></dc:title>
      </cc:Work>
    </rdf:RDF>
  </metadata>
  <g
     inkscape:label="Layer 1"
     inkscape:groupmode="layer"
     id="layer1"
     transform="translate(-29.20346,-184.17068)">
    <rect
       style="color:#000000;overflow:visible;opacity:1;vector-effect:none;fill:#feebc6;fill-opacity:1;stroke:#000000;stroke-width:0.53079998;stroke-linecap:round;stroke-linejoin:miter;stroke-miterlimit:4;stroke-dasharray:none;stroke-dashoffset:0;stroke-opacity:1;marker-start:none;marker-end:none"
       id="rect885"
       width="0"
       height="0"
       x="0"
       y="0"
       transform="matrix(0.26458333,0,0,0.26458333,0,177)" />
    <path
       sodipodi:nodetypes="ccccccccssccccscccccccccccccccccccccccccc"
       inkscape:connector-curvature="0"
       id="path919"
       d="m 44.625054,193.79823 c -3.35501,4e-5 -6.07468,2.23251 -6.07444,4.98625 1.1e-4,2.75354 2.71968,4.9857 6.07444,4.98575 2.63737,-0.001 3.76135,-1.26337 5.77985,-1.26504 2.0172,-0.002 3.13955,1.26228 5.77522,1.26504 2.75405,-0.003 3.78086,-1.50251 5.86521,-1.50069 2.08553,0.002 3.11379,1.49945 5.8694,1.50069 1.43738,-8e-4 2.7767,-0.41559 3.83004,-1.11931 1.03567,-0.69194 1.56688,-0.86817 2.09827,-0.86817 0.70293,0 1.00636,0.10358 1.98321,0.78962 1.06916,0.75087 2.45285,1.19628 3.94184,1.19786 3.35494,1.7e-4 6.0748,-2.23205 6.0749,-4.98575 2.4e-4,-2.75389 -2.71972,-4.98642 -6.0749,-4.98625 -1.43377,7.9e-4 -2.77002,0.4131 -3.82215,1.11362 -1.03972,0.69225 -1.34025,0.92036 -2.10615,0.92036 -0.71217,0 -1.09687,-0.2671 -2.16878,-0.9617 -1.04141,-0.67483 -2.35213,-1.0708 -3.75628,-1.07228 -2.75406,0.003 -3.78086,1.64358 -5.86522,1.64176 -2.08554,-0.002 -3.11379,-1.64053 -5.86939,-1.64176 -2.63755,0.001 -3.76127,1.36309 -5.77985,1.36477 -2.01729,0.002 -3.13939,-1.36194 -5.77522,-1.36477 z m -0.26907,3.39152 c 1.12705,2.7e-4 2.13876,0.56181 2.54919,1.4149 -0.40818,0.85533 -1.42039,1.41941 -2.54919,1.42059 -1.12722,-1.1e-4 -2.13916,-0.56168 -2.54965,-1.4149 0.40824,-0.85546 1.42068,-1.41956 2.54965,-1.42059 z m 11.90347,0 c 1.12705,2.7e-4 2.13876,0.56181 2.54918,1.4149 -0.40817,0.85533 -1.42038,1.41941 -2.54918,1.42059 -1.12722,-1.1e-4 -2.13916,-0.56168 -2.54965,-1.4149 0.40824,-0.85546 1.42068,-1.41956 2.54965,-1.42059 z m 11.90347,0 c 1.12705,2.7e-4 2.13876,0.5618 2.54919,1.4149 -0.40818,0.85533 -1.42039,1.41941 -2.54919,1.42059 -1.12705,-2.7e-4 -2.13876,-0.56181 -2.54919,-1.4149 0.40818,-0.85533 1.42039,-1.41941 2.54919,-1.42059 z m 11.7506,0 c 1.12705,2.7e-4 2.13875,0.56181 2.54918,1.4149 -0.40818,0.85533 -1.42039,1.41941 -2.54918,1.42059 -1.12705,-2.7e-4 -2.13876,-0.5618 -2.54919,-1.4149 0.40818,-0.85533 1.42039,-1.41941 2.54919,-1.42059 z"
       style="color:#000000;overflow:visible;opacity:1;vector-effect:none;fill:#feebc6;fill-opacity:1;stroke:#000000;stroke-width:0.14044082;stroke-linecap:round;stroke-linejoin:miter;stroke-miterlimit:4;stroke-dasharray:none;stroke-dashoffset:0;stroke-opacity:1;marker-start:none;marker-end:none" />
    <path
       style="color:#000000;overflow:visible;opacity:1;vector-effect:none;fill:#efe6d5;fill-opacity:0.81270902;stroke:none;stroke-width:0.14044081;stroke-linecap:round;stroke-linejoin:miter;stroke-miterlimit:4;stroke-dasharray:none;stroke-dashoffset:0;stroke-opacity:1;marker-start:none;marker-end:none"
       d="m 62.899533,184.2409 c -18.571073,1e-5 -33.625853,2.91111 -33.625853,15.21354 0,12.30244 15.05478,15.21354 33.625853,15.21355 18.571074,-1e-5 33.625855,-2.91111 33.625855,-15.21355 0,-12.30244 -15.054783,-15.21353 -33.625855,-15.21354 z m -23.891563,7.20835 c 2.701819,-3.5e-4 4.892191,3.46396 4.892207,7.73751 -2.07e-4,0.26738 -0.0092,0.53456 -0.02687,0.80047 0.157829,0.023 0.318428,0.0382 0.482658,0.0382 0.586324,-6.1e-4 1.138597,-0.15591 1.593699,-0.4222 -0.0055,-0.13868 -0.0086,-0.27757 -0.0093,-0.41651 1.6e-5,-4.27323 2.190073,-7.73739 4.891691,-7.73751 2.701618,1.2e-4 4.891675,3.46428 4.891691,7.73751 -4e-5,0.26199 -0.0085,0.52381 -0.02532,0.78445 0.182811,0.0312 0.369313,0.0532 0.561205,0.0532 0.552516,-5.8e-4 1.075666,-0.13724 1.515152,-0.37568 -0.0063,-0.1538 -0.0098,-0.30787 -0.01035,-0.46199 1.6e-5,-4.27323 2.190073,-7.73739 4.891691,-7.73751 2.701618,1.2e-4 4.891675,3.46428 4.89169,7.73751 -1.3e-5,0.25697 -0.0081,0.51377 -0.02429,0.76946 0.207155,0.0406 0.41974,0.0676 0.639236,0.0677 0.520597,-5.6e-4 1.013423,-0.12513 1.436605,-0.33848 -0.0072,-0.16599 -0.01098,-0.3323 -0.01138,-0.49868 1.6e-5,-4.27355 2.19039,-7.73785 4.892209,-7.73751 2.701618,1.2e-4 4.891675,3.46428 4.891691,7.73751 -9.5e-5,0.26113 -0.0085,0.52209 -0.02532,0.78186 0.184725,0.032 0.372851,0.0547 0.566891,0.0548 0.549966,-5.8e-4 1.070711,-0.1367 1.508953,-0.3731 -0.0064,-0.15432 -0.0098,-0.3089 -0.01035,-0.46354 1.6e-5,-4.27324 2.190076,-7.7374 4.891694,-7.73751 2.701819,-3.5e-4 4.89219,3.46396 4.892206,7.73751 -1.6e-5,4.27355 -2.190387,7.73784 -4.892206,7.73751 -1.667582,-5.3e-4 -3.220125,-1.34465 -4.119129,-3.56619 -0.740973,0.26413 -1.557054,0.41242 -2.416392,0.41238 -0.443743,-5.3e-4 -0.876543,-0.0453 -1.296043,-0.12092 -0.915807,2.05164 -2.404192,3.2726 -3.992004,3.27473 -1.671127,-1.5e-4 -3.226578,-1.34962 -4.124814,-3.57859 -0.751642,0.27189 -1.577666,0.4243 -2.440678,0.42478 -0.469085,-2.1e-4 -0.884913,-0.0462 -1.267622,-0.11834 -0.915956,2.0502 -2.403824,3.27009 -3.990972,3.27215 -1.669325,-5.3e-4 -3.223218,-1.34758 -4.121711,-3.57291 -0.655354,0.23566 -1.400146,0.41806 -2.354379,0.4191 -0.501158,-5.3e-4 -0.947187,-0.0476 -1.355473,-0.12196 -0.915771,2.05228 -2.404407,3.27367 -3.992521,3.27577 -1.637284,-0.002 -3.165326,-1.29977 -4.071069,-3.45715 -0.610537,0.17461 -1.296189,0.30302 -2.135786,0.30334 -0.553296,-1e-5 -1.086897,-0.0661 -1.596286,-0.17984 -0.91344,2.08723 -2.416051,3.333 -4.020942,3.33365 -2.701618,-1.1e-4 -4.891678,-3.46428 -4.891693,-7.73751 1.5e-5,-4.27324 2.190075,-7.7374 4.891693,-7.73751 z"
       id="ellipse978"
       inkscape:connector-curvature="0"
       sodipodi:nodetypes="sasasccccccccccccccccccccccccccccccccccccccccccccc" />
    <path
       sodipodi:nodetypes="cccccccccccccccccccccccccccccccccccccccccccccc"
       inkscape:connector-curvature="0"
       id="path847"
       d="m 39.00797,191.44925 c 2.701819,-3.5e-4 4.892191,3.46396 4.892207,7.73751 -2.07e-4,0.26738 -0.0092,0.53456 -0.02687,0.80047 0.157829,0.023 0.318428,0.0382 0.482658,0.0382 0.586324,-6.1e-4 1.138597,-0.15591 1.593699,-0.4222 -0.0055,-0.13868 -0.0086,-0.27757 -0.0093,-0.41651 1.6e-5,-4.27323 2.190073,-7.73739 4.891691,-7.73751 2.701618,1.2e-4 4.891675,3.46428 4.891691,7.73751 -4e-5,0.26199 -0.0085,0.52381 -0.02532,0.78445 0.182811,0.0312 0.369313,0.0532 0.561205,0.0532 0.552516,-5.8e-4 1.075666,-0.13724 1.515152,-0.37568 -0.0063,-0.1538 -0.0098,-0.30787 -0.01035,-0.46199 1.6e-5,-4.27323 2.190073,-7.73739 4.891691,-7.73751 2.701618,1.2e-4 4.891675,3.46428 4.89169,7.73751 -1.3e-5,0.25697 -0.0081,0.51377 -0.02429,0.76946 0.207155,0.0406 0.41974,0.0676 0.639236,0.0677 0.520597,-5.6e-4 1.013423,-0.12513 1.436605,-0.33848 -0.0072,-0.16599 -0.01098,-0.3323 -0.01138,-0.49868 1.6e-5,-4.27355 2.19039,-7.73785 4.892209,-7.73751 2.701618,1.2e-4 4.891675,3.46428 4.891691,7.73751 -9.5e-5,0.26113 -0.0085,0.52209 -0.02532,0.78186 0.184725,0.032 0.372851,0.0547 0.566891,0.0548 0.549966,-5.8e-4 1.070711,-0.1367 1.508953,-0.3731 -0.0064,-0.15432 -0.0098,-0.3089 -0.01035,-0.46354 1.6e-5,-4.27324 2.190076,-7.7374 4.891694,-7.73751 2.701819,-3.5e-4 4.89219,3.46396 4.892206,7.73751 -1.6e-5,4.27355 -2.190387,7.73784 -4.892206,7.73751 -1.667582,-5.3e-4 -3.220125,-1.34465 -4.119129,-3.56619 -0.740973,0.26413 -1.557054,0.41242 -2.416392,0.41238 -0.443743,-5.3e-4 -0.876543,-0.0453 -1.296043,-0.12092 -0.915807,2.05164 -2.404192,3.2726 -3.992004,3.27473 -1.671127,-1.5e-4 -3.226578,-1.34962 -4.124814,-3.57859 -0.751642,0.27189 -1.577666,0.4243 -2.440678,0.42478 -0.469085,-2.1e-4 -0.884913,-0.0462 -1.267622,-0.11834 -0.915956,2.0502 -2.403824,3.27009 -3.990972,3.27215 -1.669325,-5.3e-4 -3.223218,-1.34758 -4.121711,-3.57291 -0.655354,0.23566 -1.400146,0.41806 -2.354379,0.4191 -0.501158,-5.3e-4 -0.947187,-0.0476 -1.355473,-0.12196 -0.915771,2.05228 -2.404407,3.27367 -3.992521,3.27577 -1.637284,-0.002 -3.165326,-1.29977 -4.071069,-3.45715 -0.610537,0.17461 -1.296189,0.30302 -2.135786,0.30334 -0.553296,-1e-5 -1.086897,-0.0661 -1.596286,-0.17984 -0.91344,2.08723 -2.416051,3.333 -4.020942,3.33365 -2.701618,-1.1e-4 -4.891678,-3.46428 -4.891693,-7.73751 1.5e-5,-4.27324 2.190075,-7.7374 4.891693,-7.73751 z"
       style="color:#000000;overflow:visible;opacity:1;vector-effect:none;fill:none;fill-opacity:1;stroke:#000000;stroke-width:0.14044084;stroke-linecap:round;stroke-linejoin:miter;stroke-miterlimit:4;stroke-dasharray:none;stroke-dashoffset:0;stroke-opacity:1;marker-start:none;marker-end:none" />
  </g>
</svg>
