<?xml version="1.0" encoding="UTF-8" standalone="no"?>
<!-- Created with Inkscape (http://www.inkscape.org/) -->

<svg
   xmlns:dc="http://purl.org/dc/elements/1.1/"
   xmlns:cc="http://creativecommons.org/ns#"
   xmlns:rdf="http://www.w3.org/1999/02/22-rdf-syntax-ns#"
   xmlns:svg="http://www.w3.org/2000/svg"
   xmlns="http://www.w3.org/2000/svg"
   xmlns:sodipodi="http://sodipodi.sourceforge.net/DTD/sodipodi-0.dtd"
   xmlns:inkscape="http://www.inkscape.org/namespaces/inkscape"
   width="27.03755mm"
   height="19.886223mm"
   viewBox="0 0 27.037551 19.886223"
   version="1.1"
   id="svg8"
   inkscape:version="0.92.4 (unknown)"
   sodipodi:docname="handle-3-1.svg">
  <defs
     id="defs2" />
  <sodipodi:namedview
     id="base"
     pagecolor="#ffffff"
     bordercolor="#666666"
     borderopacity="1.0"
     inkscape:pageopacity="0.0"
     inkscape:pageshadow="2"
     inkscape:zoom="0.99437388"
     inkscape:cx="284.27627"
     inkscape:cy="182.72055"
     inkscape:document-units="mm"
     inkscape:current-layer="g821"
     showgrid="false"
     showborder="true"
     width="200mm"
     showguides="true"
     inkscape:guide-bbox="true"
     inkscape:window-width="2520"
     inkscape:window-height="995"
     inkscape:window-x="20"
     inkscape:window-y="65"
     inkscape:window-maximized="1"
     inkscape:snap-smooth-nodes="true"
     inkscape:snap-midpoints="true"
     inkscape:snap-intersection-paths="true"
     inkscape:object-paths="true"
     inkscape:snap-global="false">
    <inkscape:grid
       type="xygrid"
       id="grid815"
       units="mm"
       spacingx="10"
       spacingy="10"
       empspacing="4"
       dotted="false"
       originx="-31.715075"
       originy="-62.388947" />
  </sodipodi:namedview>
  <metadata
     id="metadata5">
    <rdf:RDF>
      <cc:Work
         rdf:about="">
        <dc:format>image/svg+xml</dc:format>
        <dc:type
           rdf:resource="http://purl.org/dc/dcmitype/StillImage" />
        <dc:title />
      </cc:Work>
    </rdf:RDF>
  </metadata>
  <g
     inkscape:label="Layer 1"
     inkscape:groupmode="layer"
     id="layer1"
     transform="translate(-31.715071,-214.72483)">
    <g
       id="g821"
       transform="rotate(30,45.334313,224.7845)">
      <path
         inkscape:connector-curvature="0"
         id="path843"
         d="m 32.165485,220.98895 a 3.969693,1.9633141 89.468163 0 0 -1.11016,1.80095 3.969693,1.9633141 89.468163 0 0 0.02248,3.96945 3.969693,1.9633141 89.468163 0 0 1.704188,1.99366 l 2.64e-4,4.6e-4 0.0072,3e-5 24.854843,2.8e-4 a 1.9745781,3.9661143 0 0 0 1.974806,-3.96616 1.9745781,3.9661143 0 0 0 -1.974679,-3.96595 l -24.899972,10e-5 3.2e-5,-0.007 a 3.969693,1.9633141 89.468163 0 0 -0.578984,0.17436 z"
         style="color:#000000;overflow:visible;opacity:1;vector-effect:none;fill:#feebc6;fill-opacity:1;stroke:none;stroke-width:0.28088167;stroke-linecap:butt;stroke-linejoin:miter;stroke-miterlimit:4;stroke-dasharray:none;stroke-dashoffset:0;stroke-opacity:1;marker-start:none;marker-end:none" />
      <ellipse
         transform="scale(1,-1)"
         ry="3.9596794"
         rx="1.9319582"
         cy="-224.72783"
         cx="32.765762"
         id="ellipse841"
         style="color:#000000;overflow:visible;opacity:1;vector-effect:none;fill:#9c9079;fill-opacity:1;stroke:none;stroke-width:0.14044085;stroke-linecap:butt;stroke-linejoin:miter;stroke-miterlimit:4;stroke-dasharray:none;stroke-dashoffset:0;stroke-opacity:1;marker-start:none;marker-end:none" />
      <path
         style="color:#000000;overflow:visible;opacity:1;vector-effect:none;fill:none;fill-opacity:1;stroke:#27241e;stroke-width:1.06159997;stroke-linecap:butt;stroke-linejoin:miter;stroke-miterlimit:4;stroke-dasharray:none;stroke-dashoffset:0;stroke-opacity:1;marker-start:none;marker-end:none"
         d="M 15.15625,0.03710937 A 7.4203998,15.003564 29.468163 0 0 8.1191406,3.8339844 7.4203998,15.003564 29.468163 0 0 0.69140625,16.869141 7.4203998,15.003564 29.468163 0 0 2.5019531,26.615234 v 0.002 l 0.023437,0.01367 81.3535159,46.970703 a 7.4629723,14.990038 30 0 0 13.958984,-9.25 7.4629723,14.990038 30 0 0 1.03125,-16.71289 L 17.367188,0.58398438 17.380859,0.56054688 A 7.4203998,15.003564 29.468163 0 0 15.15625,0.03710937 Z"
         transform="matrix(0.22913589,-0.13229167,0.13229167,0.22913589,28.664216,222.94476)"
         id="ellipse818"
         inkscape:connector-curvature="0" />
      <ellipse
         style="color:#000000;overflow:visible;opacity:1;vector-effect:none;fill:#27241e;fill-opacity:1;stroke:none;stroke-width:0.14044085;stroke-linecap:butt;stroke-linejoin:miter;stroke-miterlimit:4;stroke-dasharray:none;stroke-dashoffset:0;stroke-opacity:1;marker-start:none;marker-end:none"
         id="ellipse968"
         cx="57.669708"
         cy="-224.82407"
         rx="1.9319582"
         ry="3.9596794"
         transform="scale(1,-1)" />
    </g>
  </g>
</svg>
