<?xml version="1.0" encoding="UTF-8" standalone="no"?>
<!-- Created with Inkscape (http://www.inkscape.org/) -->

<svg
   xmlns:dc="http://purl.org/dc/elements/1.1/"
   xmlns:cc="http://creativecommons.org/ns#"
   xmlns:rdf="http://www.w3.org/1999/02/22-rdf-syntax-ns#"
   xmlns:svg="http://www.w3.org/2000/svg"
   xmlns="http://www.w3.org/2000/svg"
   xmlns:sodipodi="http://sodipodi.sourceforge.net/DTD/sodipodi-0.dtd"
   xmlns:inkscape="http://www.inkscape.org/namespaces/inkscape"
   width="44.29388mm"
   height="22.067736mm"
   viewBox="0 0 44.29388 22.067736"
   version="1.1"
   id="svg8"
   inkscape:version="0.92.4 (unknown)"
   sodipodi:docname="mayer-vietoris-example.svg">
  <defs
     id="defs2">
    <inkscape:path-effect
       effect="spiro"
       id="path-effect1063"
       is_visible="true" />
    <inkscape:path-effect
       effect="spiro"
       id="path-effect1059"
       is_visible="true" />
  </defs>
  <sodipodi:namedview
     id="base"
     pagecolor="#ffffff"
     bordercolor="#666666"
     borderopacity="1.0"
     inkscape:pageopacity="0.0"
     inkscape:pageshadow="2"
     inkscape:zoom="0.99437388"
     inkscape:cx="284.27627"
     inkscape:cy="182.72055"
     inkscape:document-units="mm"
     inkscape:current-layer="layer1"
     showgrid="false"
     showborder="true"
     width="200mm"
     showguides="true"
     inkscape:guide-bbox="true"
     inkscape:window-width="2520"
     inkscape:window-height="995"
     inkscape:window-x="20"
     inkscape:window-y="65"
     inkscape:window-maximized="1">
    <inkscape:grid
       type="xygrid"
       id="grid815"
       units="mm"
       spacingx="10"
       spacingy="10"
       empspacing="4"
       dotted="false"
       originx="-4.1065049"
       originy="-96.181176" />
  </sodipodi:namedview>
  <metadata
     id="metadata5">
    <rdf:RDF>
      <cc:Work
         rdf:about="">
        <dc:format>image/svg+xml</dc:format>
        <dc:type
           rdf:resource="http://purl.org/dc/dcmitype/StillImage" />
        <dc:title />
      </cc:Work>
    </rdf:RDF>
  </metadata>
  <g
     inkscape:label="Layer 1"
     inkscape:groupmode="layer"
     id="layer1"
     transform="translate(-4.106505,-178.75109)">
    <path
       id="path834"
       d="m 17.571668,183.64849 a 1.1807315,3.6833048 0 0 0 -1.180806,3.68349 1.1807315,3.6833048 0 0 0 1.180806,3.68298 l -0.03204,0.0512 a 11.114877,7.09477 0 0 1 0.483174,-5.1e-4 v -0.001 a 11.114877,7.09477 0 0 1 5.27358,0.99736 l 0.01085,0.0114 a 11.105621,10.417333 0 0 1 -7.275525,1.38337 l -0.02325,0.0367 a 1.1807315,3.6009905 0 0 0 -1.180806,3.60133 1.1807315,3.6009905 0 0 0 1.052134,3.5755 13.394838,8.5500989 0 0 0 1.691886,0.0786 13.394838,8.5500989 0 0 0 13.395047,-8.54987 13.394838,8.5500989 0 0 0 -13.395047,-8.55038 z"
       style="color:#000000;overflow:visible;opacity:1;vector-effect:none;fill:#feebc6;fill-opacity:0.76136361;stroke:none;stroke-width:0.12759954;stroke-linecap:round;stroke-linejoin:miter;stroke-miterlimit:4;stroke-dasharray:none;stroke-dashoffset:0;stroke-opacity:1;marker-start:none;marker-end:none"
       inkscape:connector-curvature="0" />
    <ellipse
       ry="8.5500994"
       rx="13.394838"
       cy="192.1985"
       cx="17.571564"
       id="ellipse836"
       style="color:#000000;overflow:visible;opacity:1;vector-effect:none;fill:none;fill-opacity:1;stroke:#000000;stroke-width:0.14044082;stroke-linecap:round;stroke-linejoin:miter;stroke-miterlimit:4;stroke-dasharray:none;stroke-dashoffset:0;stroke-opacity:1;marker-start:none;marker-end:none" />
    <path
       sodipodi:open="true"
       d="M 24.2209,191.49724 A 11.105621,10.417334 0 0 1 11.203271,191.6878"
       sodipodi:end="2.1814958"
       sodipodi:start="0.92888788"
       sodipodi:ry="10.417334"
       sodipodi:rx="11.105621"
       sodipodi:cy="183.15343"
       sodipodi:cx="17.571686"
       sodipodi:type="arc"
       style="color:#000000;overflow:visible;opacity:1;vector-effect:none;fill:none;fill-opacity:1;stroke:#000000;stroke-width:0.14044082;stroke-linecap:round;stroke-linejoin:miter;stroke-miterlimit:4;stroke-dasharray:none;stroke-dashoffset:0;stroke-opacity:1;marker-start:none;marker-end:none"
       id="path838" />
    <path
       d="m 11.856058,192.08079 a 11.114878,7.0947704 0 0 1 11.440193,-0.0191"
       sodipodi:open="true"
       sodipodi:end="5.2503532"
       sodipodi:start="4.169187"
       sodipodi:ry="7.0947704"
       sodipodi:rx="11.114878"
       sodipodi:cy="198.15433"
       sodipodi:cx="17.601112"
       sodipodi:type="arc"
       id="path840"
       style="color:#000000;overflow:visible;opacity:1;vector-effect:none;fill:none;fill-opacity:1;stroke:#000000;stroke-width:0.14044082;stroke-linecap:round;stroke-linejoin:miter;stroke-miterlimit:4;stroke-dasharray:none;stroke-dashoffset:0;stroke-opacity:1;marker-start:none;marker-end:none" />
    <path
       style="color:#000000;overflow:visible;opacity:1;vector-effect:none;fill:#67cedb;fill-opacity:0.41477272;stroke:none;stroke-width:0.14044082;stroke-linecap:round;stroke-linejoin:round;stroke-miterlimit:4;stroke-dasharray:none;stroke-dashoffset:0;stroke-opacity:1;marker-start:none;marker-end:none"
       d="m 17.963694,183.72729 c -0.247671,-0.004 -0.496046,-0.004 -0.735873,5.2e-4 -1.648618,0.0283 -3.098106,0.21742 -4.609536,0.601 -1.97752,0.50186 -3.7736437,1.32483 -5.1867647,2.37712 -1.51883,1.13097 -2.565542,2.54234 -2.965193,3.9982 -0.380569,1.3863 -0.246039,2.69904 0.413412,4.03438 0.535289,1.08395 1.388305,2.07189 2.529043,2.9285 2.325762,1.74649 5.6617077,2.82363 9.2428477,2.98483 0.53679,0.0243 1.241851,0.0286 1.548742,0.01 l 0.06925,-0.004 a 1.1280792,3.5253194 0 0 0 0.129191,0.0253 1.1280792,3.5253194 0 0 0 1.128099,-3.52537 1.1280792,3.5253194 0 0 0 -1.128099,-3.52536 1.1280792,3.5253194 0 0 0 -0.07648,0.008 l 0.0067,-0.009 -0.697632,-5.1e-4 c -1.115219,-2.9e-4 -1.898978,-0.0939 -2.934187,-0.35037 -1.17912,-0.29212 -2.41628,-0.81977 -3.366719,-1.4366 -0.190029,-0.12327 -0.233614,-0.18406 -0.154512,-0.21446 0.04226,-0.0162 0.0753,8.1e-4 0.4439,0.22479 l 0.236162,0.14366 0.375171,-0.13074 c 1.229148,-0.42765 2.480429,-0.6898 3.938259,-0.82475 0.32304,-0.0299 0.683459,-0.0403 1.3994,-0.0413 0.949386,-10e-4 1.372653,0.0183 1.985923,0.0935 0.147981,0.0179 0.273052,0.0293 0.279053,0.0233 0.0019,-0.002 -0.01913,-0.0267 -0.02532,-0.0372 a 1.1807315,3.6833048 0 0 0 0.338998,0.15658 1.1807315,3.6833048 0 0 0 1.180806,-3.6835 1.1807315,3.6833048 0 0 0 -1.180806,-3.68298 1.1807315,3.6833048 0 0 0 -0.19172,0.0496 l 0.07493,-0.0553 -0.101801,-0.0139 c -0.48505,-0.0671 -1.22224,-0.11221 -1.965256,-0.12351 z"
       id="path977"
       inkscape:connector-curvature="0" />
    <g
       transform="matrix(0.95209232,0,0,1,-8.1313617,-5.4850649)"
       id="g846"
       style="stroke-width:1.02485037">
      <path
         style="color:#000000;overflow:visible;opacity:1;vector-effect:none;fill:none;fill-opacity:1;stroke:#000000;stroke-width:0.14393085;stroke-linecap:round;stroke-linejoin:miter;stroke-miterlimit:4;stroke-dasharray:none;stroke-dashoffset:0;stroke-opacity:1;marker-start:none;marker-end:none"
         id="path842"
         sodipodi:type="arc"
         sodipodi:cx="-26.936993"
         sodipodi:cy="-192.81696"
         sodipodi:rx="1.1807315"
         sodipodi:ry="3.6833048"
         sodipodi:start="4.712389"
         sodipodi:end="1.5707963"
         d="m -26.936993,-196.50026 a 1.1807315,3.6833048 0 0 1 1.180732,3.6833 1.1807315,3.6833048 0 0 1 -1.180732,3.68331"
         sodipodi:open="true"
         transform="scale(-1)" />
      <path
         d="m -26.936993,-189.13365 a 1.1807315,3.6833048 0 0 1 -1.022543,-1.84165 1.1807315,3.6833048 0 0 1 0,-3.68331 1.1807315,3.6833048 0 0 1 1.022543,-1.84165"
         sodipodi:end="4.712389"
         sodipodi:start="1.5707963"
         sodipodi:ry="3.6833048"
         sodipodi:rx="1.1807315"
         sodipodi:cy="-192.81696"
         sodipodi:cx="-26.936993"
         sodipodi:type="arc"
         id="path844"
         style="color:#000000;overflow:visible;opacity:1;vector-effect:none;fill:none;fill-opacity:1;stroke:#000000;stroke-width:0.14393085;stroke-linecap:round;stroke-linejoin:miter;stroke-miterlimit:4;stroke-dasharray:1.07948132, 1.07948132;stroke-dashoffset:0;stroke-opacity:1;marker-start:none;marker-end:none"
         sodipodi:open="true"
         transform="scale(-1)" />
    </g>
    <g
       id="g852"
       transform="matrix(0.94526661,0,0,0.97605538,-9.5188097,8.8884512)"
       style="stroke-width:1.04108357">
      <path
         transform="scale(-1)"
         sodipodi:open="true"
         d="m -26.936993,-196.50026 a 1.1807315,3.6833048 0 0 1 1.180732,3.6833 1.1807315,3.6833048 0 0 1 -1.180732,3.68331"
         sodipodi:end="1.5707963"
         sodipodi:start="4.712389"
         sodipodi:ry="3.6833048"
         sodipodi:rx="1.1807315"
         sodipodi:cy="-192.81696"
         sodipodi:cx="-26.936993"
         sodipodi:type="arc"
         id="path848"
         style="color:#000000;overflow:visible;opacity:1;vector-effect:none;fill:none;fill-opacity:1;stroke:#000000;stroke-width:0.14621066;stroke-linecap:round;stroke-linejoin:miter;stroke-miterlimit:4;stroke-dasharray:none;stroke-dashoffset:0;stroke-opacity:1;marker-start:none;marker-end:none" />
      <path
         transform="scale(-1)"
         sodipodi:open="true"
         style="color:#000000;overflow:visible;opacity:1;vector-effect:none;fill:none;fill-opacity:1;stroke:#000000;stroke-width:0.14621066;stroke-linecap:round;stroke-linejoin:miter;stroke-miterlimit:4;stroke-dasharray:1.09657988, 1.09657988;stroke-dashoffset:0;stroke-opacity:1;marker-start:none;marker-end:none"
         id="path850"
         sodipodi:type="arc"
         sodipodi:cx="-26.936993"
         sodipodi:cy="-192.81696"
         sodipodi:rx="1.1807315"
         sodipodi:ry="3.6833048"
         sodipodi:start="1.5707963"
         sodipodi:end="4.712389"
         d="m -26.936993,-189.13365 a 1.1807315,3.6833048 0 0 1 -1.022543,-1.84165 1.1807315,3.6833048 0 0 1 0,-3.68331 1.1807315,3.6833048 0 0 1 1.022543,-1.84165" />
    </g>
    <path
       id="path856"
       style="color:#000000;overflow:visible;opacity:1;vector-effect:none;fill:none;fill-opacity:1;stroke:#000000;stroke-width:0.14044082;stroke-linecap:round;stroke-linejoin:miter;stroke-miterlimit:4;stroke-dasharray:none;stroke-dashoffset:0;stroke-opacity:1;marker-start:none;marker-end:none"
       sodipodi:type="arc"
       sodipodi:cx="17.571686"
       sodipodi:cy="183.15343"
       sodipodi:rx="11.105621"
       sodipodi:ry="10.417334"
       sodipodi:start="0.92888788"
       sodipodi:end="2.1814958"
       d="M 24.2209,191.49724 A 11.105621,10.417334 0 0 1 11.203271,191.6878"
       sodipodi:open="true" />
    <path
       style="color:#000000;overflow:visible;opacity:1;vector-effect:none;fill:none;fill-opacity:1;stroke:#000000;stroke-width:0.14044082;stroke-linecap:round;stroke-linejoin:miter;stroke-miterlimit:4;stroke-dasharray:none;stroke-dashoffset:0;stroke-opacity:1;marker-start:none;marker-end:none"
       id="path858"
       sodipodi:type="arc"
       sodipodi:cx="17.601112"
       sodipodi:cy="198.15433"
       sodipodi:rx="11.114878"
       sodipodi:ry="7.0947704"
       sodipodi:start="4.169187"
       sodipodi:end="5.2503532"
       sodipodi:open="true"
       d="m 11.856058,192.08079 a 11.114878,7.0947704 0 0 1 11.440193,-0.0191" />
    <ellipse
       style="color:#000000;overflow:visible;opacity:1;vector-effect:none;fill:none;fill-opacity:1;stroke:#000000;stroke-width:0.14044082;stroke-linecap:round;stroke-linejoin:miter;stroke-miterlimit:4;stroke-dasharray:none;stroke-dashoffset:0;stroke-opacity:1;marker-start:none;marker-end:none"
       id="ellipse854"
       cx="17.571564"
       cy="192.1985"
       rx="13.394838"
       ry="8.5500994" />
    <g
       style="opacity:1;stroke-width:1.08147132"
       transform="matrix(0.89054743,0,0,0.9600923,-87.903603,21.556597)"
       id="g1025">
      <path
         style="color:#000000;overflow:visible;opacity:1;vector-effect:none;fill:none;fill-opacity:1;stroke:#000000;stroke-width:0.15188272;stroke-linecap:round;stroke-linejoin:miter;stroke-miterlimit:4;stroke-dasharray:none;stroke-dashoffset:0;stroke-opacity:1;marker-start:none;marker-end:none"
         id="path1021"
         sodipodi:type="arc"
         sodipodi:cx="-119.43426"
         sodipodi:cy="-182.91068"
         sodipodi:rx="1.1807315"
         sodipodi:ry="3.6833048"
         sodipodi:start="4.712389"
         sodipodi:end="1.5707963"
         d="m -119.43426,-186.59398 a 1.1807315,3.6833048 0 0 1 1.18073,3.6833 1.1807315,3.6833048 0 0 1 -1.18073,3.68331"
         sodipodi:open="true"
         transform="scale(-1)" />
      <path
         d="m -119.43426,-179.22737 a 1.1807315,3.6833048 0 0 1 -1.02254,-1.84165 1.1807315,3.6833048 0 0 1 0,-3.68331 1.1807315,3.6833048 0 0 1 1.02254,-1.84165"
         sodipodi:end="4.712389"
         sodipodi:start="1.5707963"
         sodipodi:ry="3.6833048"
         sodipodi:rx="1.1807315"
         sodipodi:cy="-182.91068"
         sodipodi:cx="-119.43426"
         sodipodi:type="arc"
         id="path1023"
         style="color:#000000;overflow:visible;opacity:1;vector-effect:none;fill:none;fill-opacity:1;stroke:#000000;stroke-width:0.15188272;stroke-linecap:round;stroke-linejoin:miter;stroke-miterlimit:4;stroke-dasharray:1.13912043, 1.13912043;stroke-dashoffset:0;stroke-opacity:1;marker-start:none;marker-end:none"
         sodipodi:open="true"
         transform="scale(-1)" />
    </g>
    <g
       id="g1019"
       transform="matrix(0.90417534,0,0,1,-87.787423,4.6294482)"
       style="opacity:1;stroke-width:1.05165589">
      <path
         transform="scale(-1)"
         sodipodi:open="true"
         d="m -119.43426,-186.59398 a 1.1807315,3.6833048 0 0 1 1.18073,3.6833 1.1807315,3.6833048 0 0 1 -1.18073,3.68331"
         sodipodi:end="1.5707963"
         sodipodi:start="4.712389"
         sodipodi:ry="3.6833048"
         sodipodi:rx="1.1807315"
         sodipodi:cy="-182.91068"
         sodipodi:cx="-119.43426"
         sodipodi:type="arc"
         id="path947"
         style="color:#000000;overflow:visible;opacity:1;vector-effect:none;fill:none;fill-opacity:1;stroke:#000000;stroke-width:0.14769544;stroke-linecap:round;stroke-linejoin:miter;stroke-miterlimit:4;stroke-dasharray:none;stroke-dashoffset:0;stroke-opacity:1;marker-start:none;marker-end:none" />
      <path
         transform="scale(-1)"
         sodipodi:open="true"
         style="color:#000000;overflow:visible;opacity:1;vector-effect:none;fill:none;fill-opacity:1;stroke:#000000;stroke-width:0.14769544;stroke-linecap:round;stroke-linejoin:miter;stroke-miterlimit:4;stroke-dasharray:1.10771575, 1.10771575;stroke-dashoffset:0;stroke-opacity:1;marker-start:none;marker-end:none"
         id="path949"
         sodipodi:type="arc"
         sodipodi:cx="-119.43426"
         sodipodi:cy="-182.91068"
         sodipodi:rx="1.1807315"
         sodipodi:ry="3.6833048"
         sodipodi:start="1.5707963"
         sodipodi:end="4.712389"
         d="m -119.43426,-179.22737 a 1.1807315,3.6833048 0 0 1 -1.02254,-1.84165 1.1807315,3.6833048 0 0 1 0,-3.68331 1.1807315,3.6833048 0 0 1 1.02254,-1.84165" />
    </g>
    <g
       id="g1117"
       transform="translate(-5.0555263,0.10310962)">
      <text
         id="text1043"
         xml:space="preserve"
         style="font-size:2.64583325px;font-family:'Iosevka Term';-inkscape-font-specification:'Iosevka Term, Normal';fill:#000000;fill-opacity:1;stroke:none;stroke-width:0.26458332"
         y="184.73123"
         x="40.372265"><tspan
           id="tspan1041"
           sodipodi:role="line"
           x="40.372265"
           y="184.73123"
           style="stroke-width:0.26458332">$B$</tspan></text>
      <circle
         r="1.0465689"
         cy="183.74715"
         cx="38.440826"
         id="path1049"
         style="color:#000000;overflow:visible;opacity:1;vector-effect:none;fill:#ffebc6;fill-opacity:0.76078431;stroke:#000000;stroke-width:0.14044081;stroke-linecap:round;stroke-linejoin:round;stroke-miterlimit:4;stroke-dasharray:none;stroke-dashoffset:0;stroke-opacity:0;marker-start:none;marker-end:none" />
    </g>
    <g
       id="g1122"
       transform="translate(-5.0555263,1.8154583e-6)">
      <text
         x="40.372265"
         y="180.96829"
         style="font-size:2.64583325px;font-family:'Iosevka Term';-inkscape-font-specification:'Iosevka Term, Normal';fill:#000000;fill-opacity:1;stroke:none;stroke-width:0.26458332"
         xml:space="preserve"
         id="text1029"><tspan
           style="stroke-width:0.26458332"
           y="180.96829"
           x="40.372265"
           sodipodi:role="line"
           id="tspan1027">$A$</tspan></text>
      <circle
         style="color:#000000;overflow:visible;opacity:1;vector-effect:none;fill:#65ccdb;fill-opacity:0.41568627;stroke:#000000;stroke-width:0.14044081;stroke-linecap:round;stroke-linejoin:round;stroke-miterlimit:4;stroke-dasharray:none;stroke-dashoffset:0;stroke-opacity:0;marker-start:none;marker-end:none"
         id="circle1051"
         cx="38.440826"
         cy="180.3605"
         r="1.0465689" />
    </g>
    <path
       style="color:#000000;overflow:visible;opacity:1;vector-effect:none;fill:none;fill-opacity:1;stroke:#000000;stroke-width:0.28088167;stroke-linecap:round;stroke-linejoin:round;stroke-miterlimit:4;stroke-dasharray:none;stroke-dashoffset:0;stroke-opacity:1;marker-start:none;marker-end:none"
       d="m 10.543433,190.13549 c 1.025173,-1.03078 2.291124,-1.88962 3.725125,-2.12865 1.349306,-0.22491 2.726662,0.11307 4.02829,0.53375 1.301628,0.42068 2.592607,0.93047 3.95412,1.06274 0.979882,0.0952 1.971631,-0.008 2.950462,0.097 0.489415,0.0527 0.976767,0.15893 1.425417,0.36146 0.44865,0.20254 0.85833,0.50528 1.145288,0.90523 0.35407,0.49349 0.505537,1.1192 0.46147,1.72497 -0.04407,0.60578 -0.27648,1.19044 -0.623056,1.68922 -0.693152,0.99757 -1.801394,1.62847 -2.931598,2.07371 -2.881539,1.13518 -6.049718,1.25519 -9.146512,1.29715 -1.326475,0.018 -2.68161,0.0199 -3.939467,-0.40158 -0.628928,-0.21074 -1.227085,-0.52851 -1.720837,-0.97143 -0.4937515,-0.44292 -0.8799199,-1.01478 -1.058224,-1.65366 -0.2305187,-0.82597 -0.1027774,-1.72504 0.2390042,-2.51152 0.3417816,-0.78648 0.8858035,-1.47034 1.4905178,-2.07836 z"
       id="path1061"
       inkscape:connector-curvature="0"
       inkscape:path-effect="#path-effect1063"
       inkscape:original-d="m 10.543433,190.13549 c 0.576243,-1.5297 2.483681,-1.41936 3.725125,-2.12865 1.241443,-0.70928 5.321871,1.06406 7.98241,1.59649 2.660538,0.53242 3.681042,0.90884 5.521167,1.36366 1.840124,0.45482 -2.061858,3.65834 -3.093184,5.4879 -1.031326,1.82957 -6.09741,0.8645 -9.146512,1.29715 -3.049101,0.43264 -4.478754,-2.01805 -6.718528,-3.02667 -2.2397741,-1.00862 1.1532793,-3.06019 1.729522,-4.58988 z"
       transform="translate(-0.59868075,-1.7960423)" />
    <circle
       id="path1081"
       style="fill:#000000;stroke:none;stroke-width:1"
       cx="17.826948"
       cy="186.8163"
       r="0.5" />
    <circle
       r="0.5"
       cy="195.96281"
       cx="16.197206"
       style="fill:#000000;stroke:none;stroke-width:1"
       id="circle1083" />
    <text
       id="text1087"
       xml:space="preserve"
       style="font-size:1.32291663px;font-family:'Iosevka Term';-inkscape-font-specification:'Iosevka Term, Normal';fill:#000000;fill-opacity:1;stroke:none;stroke-width:0.26458332"
       y="188.55952"
       x="7.5223832"><tspan
         id="tspan1085"
         sodipodi:role="line"
         x="7.5223832"
         y="188.55952"
         style="stroke-width:0.26458332">$\rho$</tspan></text>
    <text
       x="27.958519"
       y="191.81902"
       style="font-size:1.32291663px;font-family:'Iosevka Term';-inkscape-font-specification:'Iosevka Term, Normal';fill:#000000;fill-opacity:1;stroke:none;stroke-width:0.26458332"
       xml:space="preserve"
       id="text1101"><tspan
         style="stroke-width:0.26458332"
         y="191.81902"
         x="27.958519"
         sodipodi:role="line"
         id="tspan1099">$\sigma$</tspan></text>
    <g
       id="g1112"
       transform="translate(-5.0555263,-0.53215876)">
      <text
         x="40.372265"
         y="188.82222"
         style="font-size:2.64583325px;font-family:'Iosevka Term';-inkscape-font-specification:'Iosevka Term, Normal';fill:#000000;fill-opacity:1;stroke:none;stroke-width:0.26458332"
         xml:space="preserve"
         id="text1105"><tspan
           style="stroke-width:0.26458332"
           y="188.82222"
           x="40.372265"
           sodipodi:role="line"
           id="tspan1103">$A \cap B$</tspan></text>
      <circle
         style="color:#000000;overflow:visible;opacity:1;vector-effect:none;fill:#b4ddd0;fill-opacity:0.85882353;stroke:#000000;stroke-width:0.14044081;stroke-linecap:round;stroke-linejoin:round;stroke-miterlimit:4;stroke-dasharray:none;stroke-dashoffset:0;stroke-opacity:0;marker-start:none;marker-end:none"
         id="circle1107"
         cx="38.440826"
         cy="188.17073"
         r="1.0465689" />
    </g>
  </g>
</svg>
