<?xml version="1.0" encoding="UTF-8" standalone="no"?>
<!-- Created with Inkscape (http://www.inkscape.org/) -->

<svg
   xmlns:dc="http://purl.org/dc/elements/1.1/"
   xmlns:cc="http://creativecommons.org/ns#"
   xmlns:rdf="http://www.w3.org/1999/02/22-rdf-syntax-ns#"
   xmlns:svg="http://www.w3.org/2000/svg"
   xmlns="http://www.w3.org/2000/svg"
   xmlns:xlink="http://www.w3.org/1999/xlink"
   xmlns:sodipodi="http://sodipodi.sourceforge.net/DTD/sodipodi-0.dtd"
   xmlns:inkscape="http://www.inkscape.org/namespaces/inkscape"
   width="57.207272mm"
   height="40.84333mm"
   viewBox="0 0 57.207272 40.843331"
   version="1.1"
   id="svg8"
   inkscape:version="0.92.4 (unknown)"
   sodipodi:docname="mores-homology-three-torus-critical-points-graph.svg">
  <defs
     id="defs2" />
  <sodipodi:namedview
     id="base"
     pagecolor="#ffffff"
     bordercolor="#666666"
     borderopacity="1.0"
     inkscape:pageopacity="0.0"
     inkscape:pageshadow="2"
     inkscape:zoom="0.99437388"
     inkscape:cx="284.27627"
     inkscape:cy="182.72055"
     inkscape:document-units="mm"
     inkscape:current-layer="g1323"
     showgrid="false"
     showborder="true"
     width="200mm"
     showguides="true"
     inkscape:guide-bbox="true"
     inkscape:window-width="2520"
     inkscape:window-height="995"
     inkscape:window-x="20"
     inkscape:window-y="65"
     inkscape:window-maximized="1"
     inkscape:snap-global="false">
    <inkscape:grid
       type="xygrid"
       id="grid815"
       units="mm"
       spacingx="10"
       spacingy="10"
       empspacing="4"
       dotted="false"
       originx="24.572667"
       originy="-42.213957" />
    <sodipodi:guide
       position="33.799202,50.788574"
       orientation="0,1"
       id="guide924"
       inkscape:locked="false" />
  </sodipodi:namedview>
  <metadata
     id="metadata5">
    <rdf:RDF>
      <cc:Work
         rdf:about="">
        <dc:format>image/svg+xml</dc:format>
        <dc:type
           rdf:resource="http://purl.org/dc/dcmitype/StillImage" />
        <dc:title></dc:title>
      </cc:Work>
    </rdf:RDF>
  </metadata>
  <g
     inkscape:label="Layer 1"
     inkscape:groupmode="layer"
     id="layer1"
     transform="translate(24.572668,-213.94271)">
    <g
       id="g1323"
       transform="translate(-190.872,-252.03861)">
      <use
         height="100%"
         width="100%"
         transform="translate(-12.859089,11.435309)"
         id="use1163"
         xlink:href="#g1157"
         y="0"
         x="0" />
      <use
         x="0"
         y="0"
         xlink:href="#g1157"
         id="use1161"
         transform="translate(12.991977,11.586413)"
         width="100%"
         height="100%" />
      <g
         transform="translate(-37.009893,41.016091)"
         id="g1157">
        <path
           sodipodi:nodetypes="cc"
           style="color:#000000;overflow:visible;opacity:1;vector-effect:none;fill:none;fill-opacity:1;stroke:#000000;stroke-width:0.2808817;stroke-linecap:butt;stroke-linejoin:miter;stroke-miterlimit:4;stroke-dasharray:none;stroke-dashoffset:0;stroke-opacity:1;marker-start:none;marker-end:none"
           d="m 231.51511,439.95764 0.0105,-11.80652"
           id="path1133-7"
           inkscape:connector-curvature="0" />
        <path
           inkscape:connector-curvature="0"
           id="path3996-5"
           d="m 230.74761,428.15112 0.001,11.80652"
           style="color:#000000;overflow:visible;opacity:1;vector-effect:none;fill:none;fill-opacity:1;stroke:#000000;stroke-width:0.2808817;stroke-linecap:butt;stroke-linejoin:miter;stroke-miterlimit:4;stroke-dasharray:none;stroke-dashoffset:0;stroke-opacity:1;marker-start:none;marker-end:none"
           sodipodi:nodetypes="cc" />
      </g>
      <use
         height="100%"
         width="100%"
         transform="translate(-0.08034243,23.533711)"
         id="use1159"
         xlink:href="#g1157"
         y="0"
         x="0" />
      <use
         x="0"
         y="0"
         xlink:href="#g1137"
         id="use1151"
         transform="translate(12.685357,11.904891)"
         width="100%"
         height="100%" />
      <use
         x="0"
         y="0"
         xlink:href="#g1137"
         id="use1149"
         transform="matrix(-1,0,0,1,375.68009,12.059871)"
         width="100%"
         height="100%" />
      <use
         x="0"
         y="0"
         xlink:href="#g1137"
         id="use1143"
         transform="matrix(-1,0,0,1,375.18165,23.321537)"
         width="100%"
         height="100%" />
      <use
         height="100%"
         width="100%"
         transform="translate(12.854636,23.448097)"
         id="use1141"
         xlink:href="#g1137"
         y="0"
         x="0" />
      <use
         height="100%"
         width="100%"
         transform="matrix(-1,0,0,1,388.89829,12.627699)"
         id="use1145"
         xlink:href="#g1137"
         y="0"
         x="0" />
      <use
         x="0"
         y="0"
         xlink:href="#g1137"
         id="use1147"
         transform="translate(-0.1408404,11.530928)"
         width="100%"
         height="100%" />
      <use
         height="100%"
         width="100%"
         transform="matrix(-1,0,0,1,389.03656,0.72982986)"
         id="use1139"
         xlink:href="#g1137"
         y="0"
         x="0" />
      <g
         transform="translate(-36.537208,46.274317)"
         id="g1137">
        <path
           sodipodi:nodetypes="cc"
           style="color:#000000;overflow:visible;opacity:1;vector-effect:none;fill:none;fill-opacity:1;stroke:#000000;stroke-width:0.28088167;stroke-linecap:butt;stroke-linejoin:miter;stroke-miterlimit:4;stroke-dasharray:none;stroke-dashoffset:0;stroke-opacity:1;marker-start:none;marker-end:none"
           d="m 218.51509,434.30088 13.04899,-11.90035"
           id="path1133"
           inkscape:connector-curvature="0" />
        <path
           inkscape:connector-curvature="0"
           id="path3996"
           d="M 230.93934,421.9126 217.6686,434.01531"
           style="color:#000000;overflow:visible;opacity:1;vector-effect:none;fill:none;fill-opacity:1;stroke:#000000;stroke-width:0.28088167;stroke-linecap:butt;stroke-linejoin:miter;stroke-miterlimit:4;stroke-dasharray:none;stroke-dashoffset:0;stroke-opacity:1;marker-start:none;marker-end:none"
           sodipodi:nodetypes="cc" />
      </g>
      <g
         id="g3828"
         transform="matrix(0.74886215,0,0,0.74886215,47.406083,126.44764)"
         style="stroke-width:1.33535922">
        <circle
           style="color:#000000;overflow:visible;opacity:1;vector-effect:none;fill:#000000;fill-opacity:1;stroke:none;stroke-width:0.18753897;stroke-linecap:butt;stroke-linejoin:miter;stroke-miterlimit:4;stroke-dasharray:1.40654223, 1.40654223;stroke-dashoffset:0;stroke-opacity:1;marker-start:none;marker-end:none"
           id="circle3824"
           cx="195.88228"
           cy="457.64603"
           r="2.1587279" />
        <path
           d="m 196.72426,458.17125 q 0,0.13371 -0.0523,0.26549 -0.0504,0.13177 -0.1589,0.23642 -0.10658,0.1027 -0.27518,0.16859 -0.16859,0.064 -0.40307,0.064 -0.23449,0 -0.38758,-0.064 -0.15309,-0.0659 -0.24417,-0.16472 -0.0891,-0.10077 -0.12596,-0.22285 -0.0368,-0.12209 -0.0368,-0.23836 h 0.42439 q 0.004,0.0814 0.031,0.15115 0.0291,0.0698 0.0794,0.12209 0.0504,0.0523 0.12015,0.0814 0.0717,0.0291 0.1589,0.0291 0.0872,0 0.16666,-0.0291 0.0814,-0.031 0.1434,-0.0853 0.062,-0.0562 0.0988,-0.13371 0.0368,-0.0795 0.0368,-0.17634 0,-0.0388 -0.0174,-0.11046 -0.0174,-0.0736 -0.0659,-0.14534 -0.0465,-0.0736 -0.12984,-0.12596 -0.0814,-0.0543 -0.20929,-0.0543 h -0.21704 v -0.26937 q 0.20929,0 0.3275,-0.0388 0.11821,-0.0407 0.17828,-0.1027 0.0601,-0.062 0.0736,-0.13565 0.0155,-0.0756 0.0155,-0.1434 0,-0.0698 -0.0174,-0.13759 -0.0174,-0.0678 -0.0581,-0.12209 -0.0388,-0.0543 -0.10465,-0.0872 -0.0659,-0.0349 -0.16472,-0.0349 -0.19378,0 -0.29068,0.0891 -0.095,0.0872 -0.10658,0.26742 h -0.42439 q 0.008,-0.1589 0.0717,-0.27711 0.0659,-0.12015 0.17247,-0.1996 0.10852,-0.0814 0.24998,-0.12015 0.1434,-0.0407 0.30812,-0.0407 0.16278,0 0.30619,0.0426 0.14534,0.0407 0.25192,0.12402 0.10658,0.0833 0.16859,0.20735 0.062,0.12403 0.062,0.28875 0,0.13371 -0.0407,0.22479 -0.0388,0.0891 -0.10271,0.14921 -0.062,0.0601 -0.14146,0.0988 -0.0795,0.0368 -0.15891,0.0659 0.0775,0.0213 0.16278,0.0659 0.0872,0.0426 0.15891,0.11433 0.0736,0.0698 0.12015,0.17054 0.0465,0.0988 0.0465,0.23254 z"
           style="font-style:normal;font-variant:normal;font-weight:normal;font-stretch:normal;font-size:3.96875px;line-height:125%;font-family:'Abyssinica SIL';-inkscape-font-specification:'Abyssinica SIL, Normal';font-variant-ligatures:normal;font-variant-caps:normal;font-variant-numeric:normal;font-feature-settings:normal;text-align:start;letter-spacing:0px;word-spacing:0px;writing-mode:lr-tb;text-anchor:start;fill:#ffffff;fill-opacity:1;stroke:none;stroke-width:0.35331377px;stroke-linecap:butt;stroke-linejoin:miter;stroke-opacity:1"
           id="path3826"
           inkscape:connector-curvature="0" />
      </g>
      <g
         id="g3890"
         transform="matrix(0.74886215,0,0,0.74886215,59.347039,161.17419)"
         style="stroke-width:1.33535922">
        <circle
           r="2.1587279"
           cy="457.64603"
           cx="179.93681"
           id="circle3886"
           style="color:#000000;overflow:visible;opacity:1;vector-effect:none;fill:#000000;fill-opacity:1;stroke:none;stroke-width:0.18753897;stroke-linecap:butt;stroke-linejoin:miter;stroke-miterlimit:4;stroke-dasharray:1.40654223, 1.40654223;stroke-dashoffset:0;stroke-opacity:1;marker-start:none;marker-end:none" />
        <path
           d="m 180.80788,457.64603 q 0,0.26161 -0.0465,0.49221 -0.0446,0.22867 -0.14922,0.40114 -0.10271,0.17053 -0.26936,0.26937 -0.16666,0.0988 -0.40889,0.0988 -0.23836,0 -0.40308,-0.0988 -0.16472,-0.0988 -0.26936,-0.26937 -0.10271,-0.17247 -0.14922,-0.40114 -0.0465,-0.2306 -0.0465,-0.49221 0,-0.26162 0.0465,-0.49222 0.0484,-0.23061 0.15116,-0.40114 0.10464,-0.17053 0.26936,-0.26936 0.16472,-0.0988 0.40114,-0.0988 0.24029,0 0.40695,0.0988 0.16666,0.0988 0.26936,0.26936 0.10465,0.17053 0.15116,0.40114 0.0465,0.2306 0.0465,0.49222 z m -0.43214,0 q 0,-0.19767 -0.0174,-0.37207 -0.0155,-0.17441 -0.064,-0.30231 -0.0465,-0.12984 -0.13371,-0.20348 -0.0872,-0.0756 -0.22673,-0.0756 -0.13759,0 -0.22286,0.0756 -0.0853,0.0736 -0.13371,0.20348 -0.0484,0.1279 -0.0659,0.30231 -0.0174,0.1744 -0.0174,0.37207 0,0.19766 0.0155,0.37207 0.0174,0.1744 0.0659,0.30424 0.0485,0.1279 0.13371,0.20348 0.0872,0.0756 0.2248,0.0756 0.13759,0 0.22285,-0.0756 0.0872,-0.0756 0.13565,-0.20348 0.0484,-0.12984 0.0659,-0.30424 0.0174,-0.17441 0.0174,-0.37207 z"
           style="font-style:normal;font-variant:normal;font-weight:normal;font-stretch:normal;font-size:3.96875px;line-height:125%;font-family:'Abyssinica SIL';-inkscape-font-specification:'Abyssinica SIL, Normal';font-variant-ligatures:normal;font-variant-caps:normal;font-variant-numeric:normal;font-feature-settings:normal;text-align:start;letter-spacing:0px;word-spacing:0px;writing-mode:lr-tb;text-anchor:start;fill:#ffffff;fill-opacity:1;stroke:none;stroke-width:0.35331377px;stroke-linecap:butt;stroke-linejoin:miter;stroke-opacity:1"
           id="path3888"
           inkscape:connector-curvature="0" />
      </g>
      <g
         id="g3896"
         transform="matrix(0.74886215,0,0,0.74886215,55.296261,149.59867)"
         style="stroke-width:1.33535922">
        <circle
           style="color:#000000;overflow:visible;opacity:1;vector-effect:none;fill:#000000;fill-opacity:1;stroke:none;stroke-width:0.18753897;stroke-linecap:butt;stroke-linejoin:miter;stroke-miterlimit:4;stroke-dasharray:1.40654223, 1.40654223;stroke-dashoffset:0;stroke-opacity:1;marker-start:none;marker-end:none"
           id="circle3892"
           cx="185.34604"
           cy="457.64603"
           r="2.1587279" />
        <path
           d="m 185.2981,458.86884 v -1.96112 q -0.0504,0.0465 -0.12403,0.093 -0.0717,0.0446 -0.15115,0.0853 -0.0795,0.0388 -0.15697,0.0717 -0.0775,0.031 -0.13565,0.0484 v -0.38176 q 0.0659,-0.0271 0.15115,-0.0814 0.0872,-0.0543 0.1686,-0.11433 0.0814,-0.062 0.14728,-0.11821 0.0659,-0.0562 0.0891,-0.0872 h 0.41664 v 2.44559 z"
           style="font-style:normal;font-variant:normal;font-weight:normal;font-stretch:normal;font-size:3.96875px;line-height:125%;font-family:'Abyssinica SIL';-inkscape-font-specification:'Abyssinica SIL, Normal';font-variant-ligatures:normal;font-variant-caps:normal;font-variant-numeric:normal;font-feature-settings:normal;text-align:start;letter-spacing:0px;word-spacing:0px;writing-mode:lr-tb;text-anchor:start;fill:#ffffff;fill-opacity:1;stroke:none;stroke-width:0.35331377px;stroke-linecap:butt;stroke-linejoin:miter;stroke-opacity:1"
           id="path3894"
           inkscape:connector-curvature="0" />
      </g>
      <g
         style="stroke-width:1.33535922"
         transform="matrix(0.74886215,0,0,0.74886215,42.514227,149.59867)"
         id="g3908">
        <circle
           r="2.1587279"
           cy="457.64603"
           cx="185.34604"
           id="circle3904"
           style="color:#000000;overflow:visible;opacity:1;vector-effect:none;fill:#000000;fill-opacity:1;stroke:none;stroke-width:0.18753897;stroke-linecap:butt;stroke-linejoin:miter;stroke-miterlimit:4;stroke-dasharray:1.40654223, 1.40654223;stroke-dashoffset:0;stroke-opacity:1;marker-start:none;marker-end:none" />
        <path
           inkscape:connector-curvature="0"
           id="path3906"
           style="font-style:normal;font-variant:normal;font-weight:normal;font-stretch:normal;font-size:3.96875px;line-height:125%;font-family:'Abyssinica SIL';-inkscape-font-specification:'Abyssinica SIL, Normal';font-variant-ligatures:normal;font-variant-caps:normal;font-variant-numeric:normal;font-feature-settings:normal;text-align:start;letter-spacing:0px;word-spacing:0px;writing-mode:lr-tb;text-anchor:start;fill:#ffffff;fill-opacity:1;stroke:none;stroke-width:0.35331377px;stroke-linecap:butt;stroke-linejoin:miter;stroke-opacity:1"
           d="m 185.2981,458.86884 v -1.96112 q -0.0504,0.0465 -0.12403,0.093 -0.0717,0.0446 -0.15115,0.0853 -0.0795,0.0388 -0.15697,0.0717 -0.0775,0.031 -0.13565,0.0484 v -0.38176 q 0.0659,-0.0271 0.15115,-0.0814 0.0872,-0.0543 0.1686,-0.11433 0.0814,-0.062 0.14728,-0.11821 0.0659,-0.0562 0.0891,-0.0872 h 0.41664 v 2.44559 z" />
      </g>
      <g
         id="g3914"
         transform="matrix(0.74886215,0,0,0.74886215,68.078323,149.59867)"
         style="stroke-width:1.33535922">
        <circle
           style="color:#000000;overflow:visible;opacity:1;vector-effect:none;fill:#000000;fill-opacity:1;stroke:none;stroke-width:0.18753897;stroke-linecap:butt;stroke-linejoin:miter;stroke-miterlimit:4;stroke-dasharray:1.40654223, 1.40654223;stroke-dashoffset:0;stroke-opacity:1;marker-start:none;marker-end:none"
           id="circle3910"
           cx="185.34604"
           cy="457.64603"
           r="2.1587279" />
        <path
           d="m 185.2981,458.86884 v -1.96112 q -0.0504,0.0465 -0.12403,0.093 -0.0717,0.0446 -0.15115,0.0853 -0.0795,0.0388 -0.15697,0.0717 -0.0775,0.031 -0.13565,0.0484 v -0.38176 q 0.0659,-0.0271 0.15115,-0.0814 0.0872,-0.0543 0.1686,-0.11433 0.0814,-0.062 0.14728,-0.11821 0.0659,-0.0562 0.0891,-0.0872 h 0.41664 v 2.44559 z"
           style="font-style:normal;font-variant:normal;font-weight:normal;font-stretch:normal;font-size:3.96875px;line-height:125%;font-family:'Abyssinica SIL';-inkscape-font-specification:'Abyssinica SIL, Normal';font-variant-ligatures:normal;font-variant-caps:normal;font-variant-numeric:normal;font-feature-settings:normal;text-align:start;letter-spacing:0px;word-spacing:0px;writing-mode:lr-tb;text-anchor:start;fill:#ffffff;fill-opacity:1;stroke:none;stroke-width:0.35331377px;stroke-linecap:butt;stroke-linejoin:miter;stroke-opacity:1"
           id="path3912"
           inkscape:connector-curvature="0" />
      </g>
      <g
         id="g3902"
         transform="matrix(0.74886215,0,0,0.74886215,51.210277,138.02316)"
         style="stroke-width:1.33535922">
        <circle
           r="2.1587279"
           cy="457.64603"
           cx="190.80231"
           id="circle3898"
           style="color:#000000;overflow:visible;opacity:1;vector-effect:none;fill:#000000;fill-opacity:1;stroke:none;stroke-width:0.18753897;stroke-linecap:butt;stroke-linejoin:miter;stroke-miterlimit:4;stroke-dasharray:1.40654223, 1.40654223;stroke-dashoffset:0;stroke-opacity:1;marker-start:none;marker-end:none" />
        <path
           d="m 191.65587,457.06855 q 0,0.20736 -0.093,0.38951 -0.0911,0.18023 -0.26161,0.35463 -0.16859,0.17247 -0.40695,0.34688 -0.23836,0.17441 -0.52904,0.3682 h 1.24217 v 0.37788 h -1.65881 v -0.34881 q 0.37401,-0.29456 0.62012,-0.51742 0.24804,-0.22285 0.39532,-0.39532 0.14728,-0.17441 0.20735,-0.31006 0.0601,-0.13759 0.0601,-0.26161 0,-0.0581 -0.0174,-0.12402 -0.0155,-0.0678 -0.0581,-0.12403 -0.0426,-0.0581 -0.11627,-0.0949 -0.0736,-0.0388 -0.18604,-0.0388 -0.11433,0 -0.19572,0.0426 -0.0795,0.0426 -0.13178,0.10852 -0.0504,0.0639 -0.0775,0.14341 -0.0252,0.0795 -0.031,0.15502 h -0.42439 q 0.0233,-0.37788 0.24417,-0.56585 0.22092,-0.18798 0.62787,-0.18798 0.18991,0 0.33719,0.0485 0.14728,0.0485 0.24805,0.13759 0.10077,0.0891 0.15309,0.2151 0.0523,0.12596 0.0523,0.28099 z"
           style="font-style:normal;font-variant:normal;font-weight:normal;font-stretch:normal;font-size:3.96875px;line-height:125%;font-family:'Abyssinica SIL';-inkscape-font-specification:'Abyssinica SIL, Normal';font-variant-ligatures:normal;font-variant-caps:normal;font-variant-numeric:normal;font-feature-settings:normal;text-align:start;letter-spacing:0px;word-spacing:0px;writing-mode:lr-tb;text-anchor:start;fill:#ffffff;fill-opacity:1;stroke:none;stroke-width:0.35331377px;stroke-linecap:butt;stroke-linejoin:miter;stroke-opacity:1"
           id="path3900"
           inkscape:connector-curvature="0" />
      </g>
      <g
         style="stroke-width:1.33535922"
         transform="matrix(0.74886215,0,0,0.74886215,38.428236,138.02316)"
         id="g3920">
        <circle
           style="color:#000000;overflow:visible;opacity:1;vector-effect:none;fill:#000000;fill-opacity:1;stroke:none;stroke-width:0.18753897;stroke-linecap:butt;stroke-linejoin:miter;stroke-miterlimit:4;stroke-dasharray:1.40654223, 1.40654223;stroke-dashoffset:0;stroke-opacity:1;marker-start:none;marker-end:none"
           id="circle3916"
           cx="190.80231"
           cy="457.64603"
           r="2.1587279" />
        <path
           inkscape:connector-curvature="0"
           id="path3918"
           style="font-style:normal;font-variant:normal;font-weight:normal;font-stretch:normal;font-size:3.96875px;line-height:125%;font-family:'Abyssinica SIL';-inkscape-font-specification:'Abyssinica SIL, Normal';font-variant-ligatures:normal;font-variant-caps:normal;font-variant-numeric:normal;font-feature-settings:normal;text-align:start;letter-spacing:0px;word-spacing:0px;writing-mode:lr-tb;text-anchor:start;fill:#ffffff;fill-opacity:1;stroke:none;stroke-width:0.35331377px;stroke-linecap:butt;stroke-linejoin:miter;stroke-opacity:1"
           d="m 191.65587,457.06855 q 0,0.20736 -0.093,0.38951 -0.0911,0.18023 -0.26161,0.35463 -0.16859,0.17247 -0.40695,0.34688 -0.23836,0.17441 -0.52904,0.3682 h 1.24217 v 0.37788 h -1.65881 v -0.34881 q 0.37401,-0.29456 0.62012,-0.51742 0.24804,-0.22285 0.39532,-0.39532 0.14728,-0.17441 0.20735,-0.31006 0.0601,-0.13759 0.0601,-0.26161 0,-0.0581 -0.0174,-0.12402 -0.0155,-0.0678 -0.0581,-0.12403 -0.0426,-0.0581 -0.11627,-0.0949 -0.0736,-0.0388 -0.18604,-0.0388 -0.11433,0 -0.19572,0.0426 -0.0795,0.0426 -0.13178,0.10852 -0.0504,0.0639 -0.0775,0.14341 -0.0252,0.0795 -0.031,0.15502 h -0.42439 q 0.0233,-0.37788 0.24417,-0.56585 0.22092,-0.18798 0.62787,-0.18798 0.18991,0 0.33719,0.0485 0.14728,0.0485 0.24805,0.13759 0.10077,0.0891 0.15309,0.2151 0.0523,0.12596 0.0523,0.28099 z" />
      </g>
      <g
         id="g3926"
         transform="matrix(0.74886215,0,0,0.74886215,63.992327,138.02316)"
         style="stroke-width:1.33535922">
        <circle
           r="2.1587279"
           cy="457.64603"
           cx="190.80231"
           id="circle3922"
           style="color:#000000;overflow:visible;opacity:1;vector-effect:none;fill:#000000;fill-opacity:1;stroke:none;stroke-width:0.18753897;stroke-linecap:butt;stroke-linejoin:miter;stroke-miterlimit:4;stroke-dasharray:1.40654223, 1.40654223;stroke-dashoffset:0;stroke-opacity:1;marker-start:none;marker-end:none" />
        <path
           d="m 191.65587,457.06855 q 0,0.20736 -0.093,0.38951 -0.0911,0.18023 -0.26161,0.35463 -0.16859,0.17247 -0.40695,0.34688 -0.23836,0.17441 -0.52904,0.3682 h 1.24217 v 0.37788 h -1.65881 v -0.34881 q 0.37401,-0.29456 0.62012,-0.51742 0.24804,-0.22285 0.39532,-0.39532 0.14728,-0.17441 0.20735,-0.31006 0.0601,-0.13759 0.0601,-0.26161 0,-0.0581 -0.0174,-0.12402 -0.0155,-0.0678 -0.0581,-0.12403 -0.0426,-0.0581 -0.11627,-0.0949 -0.0736,-0.0388 -0.18604,-0.0388 -0.11433,0 -0.19572,0.0426 -0.0795,0.0426 -0.13178,0.10852 -0.0504,0.0639 -0.0775,0.14341 -0.0252,0.0795 -0.031,0.15502 h -0.42439 q 0.0233,-0.37788 0.24417,-0.56585 0.22092,-0.18798 0.62787,-0.18798 0.18991,0 0.33719,0.0485 0.14728,0.0485 0.24805,0.13759 0.10077,0.0891 0.15309,0.2151 0.0523,0.12596 0.0523,0.28099 z"
           style="font-style:normal;font-variant:normal;font-weight:normal;font-stretch:normal;font-size:3.96875px;line-height:125%;font-family:'Abyssinica SIL';-inkscape-font-specification:'Abyssinica SIL, Normal';font-variant-ligatures:normal;font-variant-caps:normal;font-variant-numeric:normal;font-feature-settings:normal;text-align:start;letter-spacing:0px;word-spacing:0px;writing-mode:lr-tb;text-anchor:start;fill:#ffffff;fill-opacity:1;stroke:none;stroke-width:0.35331377px;stroke-linecap:butt;stroke-linejoin:miter;stroke-opacity:1"
           id="path3924"
           inkscape:connector-curvature="0" />
      </g>
    </g>
  </g>
</svg>
