<?xml version="1.0" encoding="UTF-8" standalone="no"?>
<!-- Created with Inkscape (http://www.inkscape.org/) -->

<svg
   xmlns:dc="http://purl.org/dc/elements/1.1/"
   xmlns:cc="http://creativecommons.org/ns#"
   xmlns:rdf="http://www.w3.org/1999/02/22-rdf-syntax-ns#"
   xmlns:svg="http://www.w3.org/2000/svg"
   xmlns="http://www.w3.org/2000/svg"
   xmlns:sodipodi="http://sodipodi.sourceforge.net/DTD/sodipodi-0.dtd"
   xmlns:inkscape="http://www.inkscape.org/namespaces/inkscape"
   width="62.783455mm"
   height="59.638882mm"
   viewBox="0 0 62.783455 59.638881"
   version="1.1"
   id="svg8"
   inkscape:version="0.92.4 (unknown)"
   sodipodi:docname="ricci-flow.svg">
  <defs
     id="defs2">
    <inkscape:path-effect
       effect="spiro"
       id="path-effect871"
       is_visible="true" />
    <inkscape:path-effect
       effect="spiro"
       id="path-effect853"
       is_visible="true" />
    <inkscape:path-effect
       effect="spiro"
       id="path-effect849"
       is_visible="true" />
    <inkscape:path-effect
       effect="spiro"
       id="path-effect845"
       is_visible="true" />
    <inkscape:path-effect
       effect="spiro"
       id="path-effect841"
       is_visible="true" />
    <inkscape:path-effect
       effect="spiro"
       id="path-effect837"
       is_visible="true" />
    <inkscape:path-effect
       effect="spiro"
       id="path-effect833"
       is_visible="true" />
    <inkscape:path-effect
       effect="spiro"
       id="path-effect829"
       is_visible="true" />
    <marker
       markerWidth="0.91100001"
       markerHeight="1.6900001"
       style="overflow:visible;stroke:#000000"
       refX="0"
       refY="0"
       orient="auto-start-reverse"
       id="marker-arrow-0.5308">
      <g
         id="g839"
         transform="scale(2.1535293)">
        <path
           id="path837"
           inkscape:connector-curvature="0"
           style="fill:none;stroke:#000000;stroke-width:0.60000002;stroke-linecap:round;stroke-linejoin:round;stroke-miterlimit:10;stroke-dasharray:none;stroke-opacity:1"
           d="M -1.55415,2.0722 C -1.42464,1.29512 0,0.1295 0.38852,0 0,-0.1295 -1.42464,-1.29512 -1.55415,-2.0722" />
      </g>
    </marker>
  </defs>
  <sodipodi:namedview
     id="base"
     pagecolor="#ffffff"
     bordercolor="#666666"
     borderopacity="1.0"
     inkscape:pageopacity="0.0"
     inkscape:pageshadow="2"
     inkscape:zoom="0.99437388"
     inkscape:cx="284.27627"
     inkscape:cy="182.72055"
     inkscape:document-units="mm"
     inkscape:current-layer="layer1"
     showgrid="false"
     showborder="true"
     width="200mm"
     showguides="true"
     inkscape:guide-bbox="true"
     inkscape:window-width="2520"
     inkscape:window-height="995"
     inkscape:window-x="20"
     inkscape:window-y="65"
     inkscape:window-maximized="1">
    <inkscape:grid
       type="xygrid"
       id="grid815"
       units="mm"
       spacingx="10"
       spacingy="10"
       empspacing="4"
       dotted="false"
       originx="7.4243151"
       originy="-58.132967" />
    <sodipodi:guide
       position="27.65014,28.179563"
       orientation="1,0"
       id="guide867"
       inkscape:locked="false" />
  </sodipodi:namedview>
  <metadata
     id="metadata5">
    <rdf:RDF>
      <cc:Work
         rdf:about="">
        <dc:format>image/svg+xml</dc:format>
        <dc:type
           rdf:resource="http://purl.org/dc/dcmitype/StillImage" />
        <dc:title />
      </cc:Work>
    </rdf:RDF>
  </metadata>
  <g
     inkscape:label="Layer 1"
     inkscape:groupmode="layer"
     id="layer1"
     transform="translate(7.4243151,-179.22815)">
    <path
       style="color:#000000;overflow:visible;opacity:1;vector-effect:none;fill:#feebc6;fill-opacity:1;stroke:#000000;stroke-width:0.14044084;stroke-linecap:round;stroke-linejoin:round;stroke-miterlimit:4;stroke-dasharray:none;stroke-dashoffset:0;stroke-opacity:1;marker-start:none;marker-end:none"
       d="m 53.551399,207.74767 c -0.03713,-0.74041 0.239598,-1.4929 0.753104,-2.02759 0.513505,-0.53469 1.257596,-0.84209 1.998549,-0.81814 0.473753,0.0153 0.936164,0.15943 1.365409,0.36049 0.429245,0.20106 0.829196,0.45858 1.228444,0.71408 0.399248,0.25549 0.800921,0.51068 1.232564,0.70654 0.431644,0.19586 0.897163,0.33169 1.371148,0.33555 0.631898,0.005 1.24764,-0.22496 1.788276,-0.55212 0.540637,-0.32716 1.016313,-0.7494 1.490899,-1.16664 0.474586,-0.41724 0.955262,-0.83473 1.502761,-1.15027 0.547498,-0.31555 1.172114,-0.52622 1.803216,-0.4941 0.569222,0.029 1.114739,0.25376 1.595149,0.56045 0.480409,0.30669 0.903244,0.69404 1.321551,1.08118 0.418307,0.38713 0.837228,0.77808 1.311945,1.09351 0.474717,0.31543 1.01262,0.55469 1.5804,0.60447 0.508677,0.0446 1.021851,-0.0647 1.49773,-0.2498 0.475879,-0.18515 0.918904,-0.44458 1.354525,-0.71099 0.435621,-0.26641 0.867417,-0.54164 1.328083,-0.76193 0.460665,-0.22029 0.95445,-0.38553 1.464079,-0.41746 0.813061,-0.0509 1.645619,0.25911 2.214589,0.84215 0.56897,0.58304 0.859161,1.43163 0.748729,2.23877 -0.09602,0.70178 -0.488756,1.35555 -1.055057,1.78102 -0.566301,0.42547 -1.297805,0.62051 -2.002333,0.5473 -0.926387,-0.0963 -1.743377,-0.62169 -2.537804,-1.10784 -0.397213,-0.24308 -0.800099,-0.48068 -1.230878,-0.65758 -0.430779,-0.17691 -0.892785,-0.29219 -1.35833,-0.28068 -0.611031,0.0151 -1.200507,0.2482 -1.720113,0.57006 -0.519607,0.32186 -0.978439,0.73114 -1.437202,1.13503 -0.458762,0.40388 -0.92392,0.80714 -1.452339,1.11432 -0.528419,0.30718 -1.129396,0.51581 -1.740314,0.49668 -0.570219,-0.0179 -1.120432,-0.23309 -1.606219,-0.53222 -0.485787,-0.29913 -0.914687,-0.68071 -1.338296,-1.06284 -0.423609,-0.38213 -0.84712,-0.76878 -1.32513,-1.08019 -0.47801,-0.3114 -1.017868,-0.54694 -1.586438,-0.59381 -0.517746,-0.0427 -1.039017,0.0728 -1.521994,0.26413 -0.482978,0.19135 -0.932494,0.45703 -1.376591,0.72659 -0.444096,0.26956 -0.886691,0.545 -1.360471,0.75811 -0.47378,0.2131 -0.98347,0.36332 -1.502953,0.36783 -0.707488,0.006 -1.4137,-0.26973 -1.929104,-0.75443 -0.515405,-0.4847 -0.834152,-1.173 -0.869584,-1.87963 z"
       id="path827"
       inkscape:connector-curvature="0"
       inkscape:path-effect="#path-effect829"
       inkscape:original-d="m 53.551399,207.74767 c -0.933162,-0.87776 1.8347,-1.89742 2.751653,-2.84573 0.916953,-0.94831 3.465309,1.41084 5.197565,2.11666 1.732259,0.70581 4.468761,-2.24235 6.585152,-3.36313 2.116392,-1.12078 3.794569,2.22614 5.809045,3.33961 2.014479,1.11347 3.763209,-1.42705 5.644417,-2.14018 1.881209,-0.71312 1.975811,2.05368 2.963318,3.08092 0.987509,1.02723 -2.037996,1.55194 -3.05739,2.32832 -1.019398,0.77637 -3.417745,-1.36434 -5.127012,-2.0461 -1.709269,-0.68177 -4.233047,2.21046 -6.349968,3.31609 -2.11692,1.10563 -3.903792,-2.17964 -5.856083,-3.26906 -1.952292,-1.08942 -3.841073,1.41084 -5.762009,2.11666 -1.920933,0.70582 -1.865527,-1.75631 -2.798688,-2.63406 z"
       sodipodi:nodetypes="cscssccccsssc"
       transform="translate(-44.611722,-21.781723)" />
    <path
       style="color:#000000;overflow:visible;opacity:1;vector-effect:none;fill:#feebc6;fill-opacity:1;stroke:#000000;stroke-width:0.14044084;stroke-linecap:round;stroke-linejoin:round;stroke-miterlimit:4;stroke-dasharray:none;stroke-dashoffset:0;stroke-opacity:1;marker-start:none;marker-end:none"
       d="m 54.633246,214.14467 c 0.98972,-0.0949 1.971468,0.2021 2.914218,0.51798 0.94275,0.31588 1.900563,0.65825 2.894825,0.65794 1.299633,-4e-4 2.519418,-0.5836 3.684597,-1.15928 1.16518,-0.57568 2.377242,-1.16916 3.676664,-1.19256 1.325492,-0.0239 2.580948,0.54845 3.774915,1.1246 1.193967,0.57614 2.426098,1.18028 3.750973,1.22724 1.004929,0.0356 1.989834,-0.25367 2.952816,-0.54318 0.962983,-0.2895 1.945002,-0.58497 2.950303,-0.56218 0.604082,0.0137 1.218676,0.14981 1.721631,0.48468 0.251477,0.16744 0.472101,0.38346 0.633601,0.63879 0.161499,0.25533 0.262753,0.55038 0.278827,0.85207 0.0163,0.30601 -0.05536,0.61465 -0.193883,0.88799 -0.138526,0.27335 -0.342722,0.51161 -0.584118,0.70038 -0.482791,0.37755 -1.102557,0.5507 -1.714948,0.57533 -0.958454,0.0386 -1.89457,-0.26308 -2.80321,-0.57048 -0.90864,-0.3074 -1.834941,-0.62787 -2.79417,-0.62896 -1.320274,-0.002 -2.557386,0.59861 -3.73984,1.18591 -1.182454,0.58731 -2.418738,1.18851 -3.739012,1.18945 -1.323643,9.4e-4 -2.563908,-0.6017 -3.745439,-1.19837 -1.181531,-0.59667 -2.410182,-1.21445 -3.733411,-1.24755 -1.071486,-0.0268 -2.109443,0.33364 -3.129676,0.66216 -1.020232,0.32852 -2.087438,0.63279 -3.149739,0.49025 -0.533087,-0.0715 -1.059563,-0.26153 -1.472309,-0.6064 -0.412746,-0.34488 -0.701238,-0.85498 -0.7149,-1.39267 -0.0072,-0.28407 0.06124,-0.56851 0.18783,-0.82292 0.126592,-0.25441 0.310457,-0.47894 0.528418,-0.66126 0.435922,-0.36465 0.999305,-0.5547 1.565037,-0.60896 z"
       id="path831"
       inkscape:connector-curvature="0"
       inkscape:path-effect="#path-effect833"
       inkscape:original-d="m 54.633246,214.14467 c 0.760163,-0.69745 3.87296,0.78368 5.809043,1.17592 1.936086,0.39224 4.907772,-1.56816 7.361261,-2.35184 2.453487,-0.78368 5.017521,1.56763 7.525888,2.35184 2.508364,0.78421 3.935677,-0.73717 5.903119,-1.10536 1.967441,-0.36819 1.756304,1.31676 2.634059,1.97554 0.877758,0.65878 -1.661702,1.4422 -2.492949,2.1637 -0.83125,0.72149 -3.731321,-0.79989 -5.59738,-1.19944 -1.866058,-0.39955 -4.985636,1.58331 -7.478852,2.37536 -2.493214,0.79205 -4.985637,-1.63088 -7.47885,-2.44592 -2.493217,-0.81504 -4.18601,0.76801 -6.279415,1.15241 -2.093401,0.38439 -1.457875,-1.33298 -2.187209,-1.99907 -0.729335,-0.66609 1.521121,-1.39569 2.281285,-2.09314 z"
       transform="translate(-44.684962,-19.756818)" />
    <path
       style="color:#000000;overflow:visible;opacity:1;vector-effect:none;fill:#feebc6;fill-opacity:1;stroke:#000000;stroke-width:0.14044084;stroke-linecap:round;stroke-linejoin:round;stroke-miterlimit:4;stroke-dasharray:none;stroke-dashoffset:0;stroke-opacity:1;marker-start:none;marker-end:none"
       d="m 54.98602,231.83051 c 0.779199,-0.10906 1.571557,0.003 2.345506,0.14432 0.773949,0.14159 1.547957,0.31374 2.334655,0.32605 1.403927,0.022 2.760181,-0.46379 4.080145,-0.94252 1.319964,-0.47874 2.676856,-0.96335 4.080743,-0.93895 1.312715,0.0228 2.572141,0.48953 3.800282,0.95365 1.228142,0.46412 2.483775,0.93757 3.796159,0.97485 0.949278,0.027 1.888004,-0.17613 2.819058,-0.3632 0.931055,-0.18706 1.879793,-0.35989 2.825359,-0.27179 0.486225,0.0453 0.978046,0.16513 1.378952,0.44395 0.200452,0.13941 0.375406,0.31782 0.499215,0.52826 0.12381,0.21045 0.195236,0.45345 0.191452,0.69759 -0.0039,0.25144 -0.08756,0.49908 -0.224959,0.70969 -0.1374,0.21061 -0.32716,0.38484 -0.541302,0.51667 -0.428283,0.26367 -0.941837,0.35535 -1.444468,0.3729 -1.389873,0.0485 -2.749179,-0.42752 -4.139239,-0.47037 -1.654853,-0.051 -3.258857,0.51043 -4.83119,1.029 -1.572333,0.51856 -3.215078,1.0071 -4.858389,0.80543 -1.073069,-0.13169 -2.086029,-0.55173 -3.091179,-0.94984 -1.00515,-0.39811 -2.037951,-0.78276 -3.117681,-0.83755 -0.988545,-0.0502 -1.967006,0.17865 -2.935853,0.38132 -0.968848,0.20266 -1.965505,0.38108 -2.943747,0.23015 -0.462086,-0.0713 -0.922722,-0.22127 -1.288936,-0.51195 -0.183107,-0.14534 -0.340369,-0.32495 -0.450192,-0.53132 -0.109822,-0.20638 -0.171263,-0.43986 -0.165862,-0.67357 0.0052,-0.2255 0.07252,-0.448 0.184285,-0.64393 0.111763,-0.19592 0.267182,-0.36558 0.4464,-0.50254 0.358438,-0.27392 0.804022,-0.41377 1.250786,-0.4763 z"
       id="path839"
       inkscape:connector-curvature="0"
       inkscape:path-effect="#path-effect841"
       inkscape:original-d="m 54.98602,231.83051 c 0.626893,-0.54066 3.120374,0.31332 4.680161,0.47037 1.559791,0.15705 5.385983,-1.25458 8.160888,-1.88147 3.950828,-1.00319 5.119436,1.2854 7.596441,1.9285 2.477008,0.64311 3.763209,-0.42359 5.644417,-0.63499 1.881209,-0.2114 1.380012,1.11294 2.069619,1.6698 0.68961,0.55687 -1.473555,1.06591 -2.210729,1.59926 -0.737174,0.53334 -2.759228,-0.31385 -4.139239,-0.47037 -1.380011,-0.15653 -6.812229,1.21485 -9.689579,1.83443 -2.877349,0.61959 -3.786201,-1.18402 -6.20886,-1.78739 -2.42266,-0.60338 -3.919469,0.40738 -5.8796,0.61147 -1.960132,0.20409 -1.269728,-1.14482 -1.90499,-1.71684 -0.635262,-0.57202 1.25458,-1.08211 1.881471,-1.62277 z"
       sodipodi:nodetypes="csccscccccssc"
       transform="translate(-44.695743,-27.187367)" />
    <circle
       style="color:#000000;overflow:visible;opacity:1;vector-effect:none;fill:#feebc6;fill-opacity:1;stroke:#000000;stroke-width:0.14044084;stroke-linecap:round;stroke-linejoin:round;stroke-miterlimit:4;stroke-dasharray:none;stroke-dashoffset:0;stroke-opacity:1;marker-start:none;marker-end:none"
       id="path855"
       cx="23.425211"
       cy="232.44939"
       r="2.6105428" />
    <ellipse
       cy="223.77072"
       cx="23.425211"
       id="circle857"
       style="color:#000000;overflow:visible;opacity:1;vector-effect:none;fill:#feebc6;fill-opacity:1;stroke:#000000;stroke-width:0.14044084;stroke-linecap:round;stroke-linejoin:round;stroke-miterlimit:4;stroke-dasharray:none;stroke-dashoffset:0;stroke-opacity:1;marker-start:none;marker-end:none"
       rx="7.1260757"
       ry="2.6105428" />
    <path
       id="path832"
       style="color:#000000;overflow:visible;opacity:1;vector-effect:none;fill:#feebc6;fill-opacity:1;stroke:#000000;stroke-width:0.14044082;stroke-linecap:round;stroke-linejoin:round;stroke-miterlimit:4;stroke-dasharray:none;stroke-dashoffset:0;stroke-opacity:1;marker-start:none;marker-end:none"
       d="m 23.61408,212.66776 c 1.365824,0.0465 2.704677,0.36904 4.045167,0.63499 1.288233,0.25558 2.591138,0.46045 3.904053,0.49389 0.803016,0.0205 1.617631,-0.0222 2.398877,0.16463 0.304789,0.0729 0.607012,0.18344 0.852344,0.37843 0.122666,0.0975 0.229817,0.21563 0.308007,0.35142 0.07819,0.13578 0.126884,0.2895 0.133159,0.44607 0.007,0.17476 -0.03912,0.35001 -0.122711,0.50363 -0.0836,0.15363 -0.203795,0.28598 -0.342831,0.39208 -0.278069,0.21221 -0.623991,0.31712 -0.969079,0.37428 -0.852143,0.14115 -1.723316,0.0146 -2.587024,0.0235 -1.37215,0.0141 -2.714754,0.36939 -4.045163,0.70555 -1.195974,0.30219 -2.412115,0.59268 -3.645353,0.56445 -0.03971,-9.1e-4 -0.07939,-0.002 -0.118883,-0.001 -0.06265,0.002 -0.125488,0.001 -0.188298,-0.002 -1.36582,-0.0465 -2.70467,-0.36904 -4.04516,-0.63499 -1.28824,-0.25558 -2.59114,-0.46045 -3.90406,-0.49389 -0.80301,-0.0205 -1.61763,0.0222 -2.39887,-0.16463 -0.30479,-0.0729 -0.60702,-0.18344 -0.85235,-0.37843 -0.12266,-0.0975 -0.22982,-0.21563 -0.30801,-0.35142 -0.0782,-0.13578 -0.12688,-0.2895 -0.13316,-0.44607 -0.007,-0.17476 0.0391,-0.35001 0.12272,-0.50363 0.0836,-0.15363 0.20379,-0.28598 0.34283,-0.39208 0.27807,-0.21221 0.62399,-0.31712 0.96908,-0.37428 0.85214,-0.14115 1.72331,-0.0146 2.58702,-0.0235 1.37215,-0.0141 2.71475,-0.36939 4.04516,-0.70555 1.19598,-0.30219 2.41212,-0.59268 3.64536,-0.56445 0.0397,9.1e-4 0.0794,0.002 0.118877,0.001 0.06267,-0.002 0.125486,0 0.188298,0.002 z"
       inkscape:connector-curvature="0"
       sodipodi:nodetypes="ccccccccccccccccccccccccccccc" />
    <path
       style="color:#000000;overflow:visible;opacity:1;vector-effect:none;fill:none;fill-opacity:1;stroke:#000000;stroke-width:0.14044084;stroke-linecap:round;stroke-linejoin:round;stroke-miterlimit:4;stroke-dasharray:none;stroke-dashoffset:0;stroke-opacity:1;marker-start:none;marker-end:url(#marker-arrow-0.5308)"
       d="m 4.7036802,181.38354 v 54.28047"
       id="path835"
       inkscape:connector-curvature="0" />
    <text
       id="text863"
       xml:space="preserve"
       style="font-size:2.64583325px;font-family:'Iosevka Term';-inkscape-font-specification:'Iosevka Term, Normal';fill:#000000;fill-opacity:1;stroke:none;stroke-width:0.26458332"
       y="234.99698"
       x="6.1602511"><tspan
         id="tspan861"
         sodipodi:role="line"
         x="6.1602511"
         y="234.99698"
         style="stroke-width:0.26458332">$t$</tspan></text>
  </g>
</svg>
